<svg width="160" height="480" xmlns="http://www.w3.org/2000/svg">
  <defs>
    <linearGradient id="silverGradient" x1="0%" y1="0%" x2="0%" y2="100%">
      <stop offset="0%" style="stop-color:#C0C0C0;stop-opacity:1" />
      <stop offset="100%" style="stop-color:#808080;stop-opacity:1" />
    </linearGradient>
    <radialGradient id="centerGlow" cx="50%" cy="50%" r="40%">
      <stop offset="0%" style="stop-color:#E8E8E8;stop-opacity:0.3" />
      <stop offset="100%" style="stop-color:#696969;stop-opacity:0.1" />
    </radialGradient>
  </defs>
  
  <rect width="160" height="480" rx="12" ry="12" fill="url(#silverGradient)" stroke="#2F4F4F" stroke-width="3"/>
  <rect x="8" y="8" width="144" height="464" rx="8" ry="8" fill="none" stroke="#F5F5F5" stroke-width="2" opacity="0.6"/>
  
  <ellipse cx="80" cy="240" rx="60" ry="180" fill="url(#centerGlow)"/>
  
  <g transform="translate(80,120)">
    <circle cx="0" cy="0" r="30" fill="none" stroke="#F5F5F5" stroke-width="3"/>
    <path d="M -20,-10 L 20,-10 L 15,0 L 20,10 L -20,10 L -15,0 Z" fill="#F5F5F5"/>
    <circle cx="0" cy="0" r="12" fill="none" stroke="#2F4F4F" stroke-width="2"/>
    <text x="0" y="5" text-anchor="middle" font-family="serif" font-size="12" font-weight="bold" fill="#2F4F4F">C</text>
  </g>
  
  <text x="80" y="200" text-anchor="middle" font-family="serif" font-size="20" font-weight="bold" fill="#F5F5F5">CAESAR</text>
  
  <g transform="translate(80,280)">
    <path d="M -15,-10 L 15,-10 L 10,0 L 15,10 L -15,10 L -10,0 Z" fill="none" stroke="#F5F5F5" stroke-width="2"/>
    <line x1="-10" y1="-5" x2="10" y2="-5" stroke="#F5F5F5" stroke-width="1"/>
    <line x1="-10" y1="0" x2="10" y2="0" stroke="#F5F5F5" stroke-width="1"/>
    <line x1="-10" y1="5" x2="10" y2="5" stroke="#F5F5F5" stroke-width="1"/>
  </g>
  
  <g transform="translate(20,30)">
    <path d="M 0,0 L 15,0 L 15,15 L 0,15 Z" fill="none" stroke="#F5F5F5" stroke-width="1"/>
    <path d="M 3,3 L 12,3 L 12,12 L 3,12 Z" fill="#F5F5F5" opacity="0.3"/>
  </g>
  
  <g transform="translate(125,30) rotate(90)">
    <path d="M 0,0 L 15,0 L 15,15 L 0,15 Z" fill="none" stroke="#F5F5F5" stroke-width="1"/>
    <path d="M 3,3 L 12,3 L 12,12 L 3,12 Z" fill="#F5F5F5" opacity="0.3"/>
  </g>
  
  <g transform="translate(20,435)">
    <path d="M 0,0 L 15,0 L 15,15 L 0,15 Z" fill="none" stroke="#F5F5F5" stroke-width="1"/>
    <path d="M 3,3 L 12,3 L 12,12 L 3,12 Z" fill="#F5F5F5" opacity="0.3"/>
  </g>
  
  <g transform="translate(140,450) rotate(180)">
    <path d="M 0,0 L 15,0 L 15,15 L 0,15 Z" fill="none" stroke="#F5F5F5" stroke-width="1"/>
    <path d="M 3,3 L 12,3 L 12,12 L 3,12 Z" fill="#F5F5F5" opacity="0.3"/>
  </g>
  
  <text x="80" y="380" text-anchor="middle" font-family="serif" font-size="14" font-weight="bold" fill="#F5F5F5">Emperor of Rome</text>
</svg>
