<svg width="160" height="480" xmlns="http://www.w3.org/2000/svg">
  <defs>
    <linearGradient id="darkYellowGradient" x1="0%" y1="0%" x2="0%" y2="100%">
      <stop offset="0%" style="stop-color:#B8860B;stop-opacity:1" />
      <stop offset="100%" style="stop-color:#8B6914;stop-opacity:1" />
    </linearGradient>
    <radialGradient id="centerGlow" cx="50%" cy="50%" r="40%">
      <stop offset="0%" style="stop-color:#DAA520;stop-opacity:0.3" />
      <stop offset="100%" style="stop-color:#8B6914;stop-opacity:0.1" />
    </radialGradient>
  </defs>
  
  <rect width="160" height="480" rx="12" ry="12" fill="url(#darkYellowGradient)" stroke="#6B4A0A" stroke-width="3"/>
  <rect x="8" y="8" width="144" height="464" rx="8" ry="8" fill="none" stroke="#FFD700" stroke-width="2" opacity="0.6"/>
  
  <ellipse cx="80" cy="240" rx="60" ry="180" fill="url(#centerGlow)"/>
  
  <g transform="translate(80,120)">
    <ellipse cx="0" cy="0" rx="25" ry="12" fill="none" stroke="#FFD700" stroke-width="2"/>
    <circle cx="-8" cy="0" r="6" fill="#FFD700"/>
    <circle cx="-8" cy="0" r="3" fill="#8B6914"/>
    <path d="M 15,0 Q 20,8 25,0" fill="none" stroke="#FFD700" stroke-width="2"/>
    <path d="M -20,8 Q -15,12 -10,8" fill="none" stroke="#FFD700" stroke-width="2"/>
  </g>
  
  <text x="80" y="200" text-anchor="middle" font-family="serif" font-size="20" font-weight="bold" fill="#FFD700">CLEOPATRA</text>
  
  <g transform="translate(80,280)">
    <circle cx="0" cy="-15" r="8" fill="none" stroke="#FFD700" stroke-width="2"/>
    <line x1="0" y1="-7" x2="0" y2="20" stroke="#FFD700" stroke-width="2"/>
    <line x1="-8" y1="5" x2="8" y2="5" stroke="#FFD700" stroke-width="2"/>
  </g>
  
  <g transform="translate(20,30)">
    <path d="M 0,0 L 15,0 L 15,15 L 0,15 Z" fill="none" stroke="#FFD700" stroke-width="1"/>
    <path d="M 3,3 L 12,3 L 12,12 L 3,12 Z" fill="#FFD700" opacity="0.3"/>
  </g>
  
  <g transform="translate(125,30) rotate(90)">
    <path d="M 0,0 L 15,0 L 15,15 L 0,15 Z" fill="none" stroke="#FFD700" stroke-width="1"/>
    <path d="M 3,3 L 12,3 L 12,12 L 3,12 Z" fill="#FFD700" opacity="0.3"/>
  </g>
  
  <g transform="translate(20,435)">
    <path d="M 0,0 L 15,0 L 15,15 L 0,15 Z" fill="none" stroke="#FFD700" stroke-width="1"/>
    <path d="M 3,3 L 12,3 L 12,12 L 3,12 Z" fill="#FFD700" opacity="0.3"/>
  </g>
  
  <g transform="translate(140,450) rotate(180)">
    <path d="M 0,0 L 15,0 L 15,15 L 0,15 Z" fill="none" stroke="#FFD700" stroke-width="1"/>
    <path d="M 3,3 L 12,3 L 12,12 L 3,12 Z" fill="#FFD700" opacity="0.3"/>
  </g>
  
  <text x="80" y="380" text-anchor="middle" font-family="serif" font-size="14" font-weight="bold" fill="#FFD700">Queen of Egypt</text>
</svg>
